<svg width="1000" height="1000" viewBox="0 0 1000 1000" fill="none" xmlns="http://www.w3.org/2000/svg">
<rect width="1000" height="1000" fill="#171717"/>
<path d="M499.5 720.918L315.925 831.512C310.661 834.803 305.068 836.284 299.146 835.955C293.225 835.626 287.961 833.816 283.355 830.524C278.749 827.233 275.295 822.954 272.992 817.687C270.689 812.421 270.195 806.496 271.511 799.913L319.873 590.575L158.011 449.371C152.747 444.763 149.621 439.661 148.634 434.066C147.648 428.47 147.812 423.039 149.128 417.773C150.444 412.507 153.405 408.063 158.011 404.442C162.616 400.822 168.209 398.682 174.789 398.024L388.96 379.263L471.865 181.774C474.497 175.849 478.445 171.406 483.709 168.443C488.972 165.481 494.236 164 499.5 164C504.764 164 510.028 165.481 515.291 168.443C520.555 171.406 524.503 175.849 527.135 181.774L610.04 379.263L824.211 398.024C830.791 398.682 836.384 400.822 840.989 404.442C845.595 408.063 848.556 412.507 849.872 417.773C851.188 423.039 851.353 428.47 850.366 434.066C849.379 439.661 846.253 444.763 840.989 449.371L679.127 590.575L727.489 799.913C728.804 806.496 728.311 812.421 726.008 817.687C723.705 822.954 720.251 827.233 715.645 830.524C711.039 833.816 705.775 835.626 699.854 835.955C693.932 836.284 688.339 834.803 683.075 831.512L499.5 720.918Z" fill="#F0F0F0"/>
</svg>